<svg width="162" height="36" viewBox="0 0 162 36" fill="none"
  xmlns="http://www.w3.org/2000/svg">
  <path d="M17.3851 35.2759C16.4236 34.7251 15.6815 34.0766 15.3618 33.813C12.6933 31.5731 10.7819 28.5 10.255 25.015C9.97412 23.2443 9.97126 21.4794 10.3197 19.7174C10.6959 17.8133 11.4174 16.0386 12.3531 14.3447C12.9078 13.3308 13.537 12.3589 14.2357 11.4369C14.8047 10.6913 15.3842 9.95179 15.9922 9.23706C17.2003 7.81859 18.5212 6.50968 19.8969 5.25217C21.2381 4.02693 22.6424 2.87374 24.0533 1.72735C24.651 1.24166 25.2813 0.791103 25.9901 0.466482C26.439 0.258348 26.893 0.00163777 27.4145 0.252903C27.515 0.302965 27.6101 0.363276 27.6981 0.43286C27.8542 0.570822 28.0008 0.718943 28.137 0.876238C28.641 1.45833 28.869 2.02074 29.0526 2.46431C29.3354 3.14659 29.595 3.83852 29.8563 4.52902C30.5269 6.30158 31.143 8.08988 31.6535 9.91567C31.7574 10.2901 31.8589 10.6651 31.9617 11.0388L32.116 11.701C32.1566 11.8696 32.2036 12.0375 32.24 12.2073C32.3072 12.5251 32.3696 12.8443 32.4352 13.1632C32.493 13.4512 32.5553 13.7368 32.6083 14.0271C32.6643 14.345 32.7101 14.6641 32.7576 14.9837C32.8118 15.3466 32.8772 15.709 32.9126 16.0721C32.9843 16.8259 33.0568 17.5801 33.0957 18.3365C33.1672 19.7209 33.1028 21.1088 32.9034 22.4805C32.6663 24.1119 32.2192 25.6819 31.489 27.1648C31.144 27.8611 30.7463 28.5304 30.2992 29.167C29.9199 29.7157 29.5055 30.2397 29.0586 30.7358C27.8728 32.057 26.4408 33.1386 24.8411 33.9212C24.2697 34.2015 23.6771 34.4368 23.0685 34.625C22.9313 34.6674 22.7947 34.7116 22.6575 34.7514C22.4393 34.8153 22.2214 34.8829 22.0002 34.9391C21.8092 34.9856 21.6185 35.0203 21.4256 35.0598C21.2732 35.0894 21.1193 35.1147 20.968 35.1425L20.4279 35.2388L19.826 35.2878C19.2082 35.3412 18.5874 35.3492 17.9684 35.3117C17.8893 35.3064 17.4637 35.282 17.3851 35.2759Z" fill="white"/>
  <path d="M17.4153 35.3094C16.3051 35.3094 15.3356 35.1159 14.9259 35.0463C11.4862 34.4303 8.28239 32.7172 6.06991 29.9606C4.93442 28.5665 4.04261 27.0395 3.45652 25.3406C2.82283 23.505 2.55336 21.6101 2.51013 19.6789C2.47956 18.5257 2.53474 17.3718 2.67521 16.2267C2.79225 15.2987 2.92153 14.3707 3.08792 13.4501C3.4194 11.6223 3.90373 9.83346 4.46144 8.06192C5.0056 6.33539 5.64061 4.64002 6.28479 2.94726C6.55774 2.23007 6.87655 1.52716 7.32682 0.894377C7.6107 0.491419 7.87448 0.0438806 8.45271 0.00276245C8.56503 -0.00377633 8.67774 0.00130068 8.789 0.0179112C8.99369 0.059954 9.19532 0.115478 9.39256 0.184115C10.1223 0.438182 10.6032 0.812141 10.9857 1.10516C11.5745 1.55573 12.1479 2.02621 12.7222 2.49452C14.1962 3.6969 15.6308 4.93997 16.993 6.26787C17.2716 6.54055 17.5485 6.81496 17.8258 7.08764L18.2931 7.58452C18.4132 7.71047 18.5386 7.83252 18.6556 7.96151C18.874 8.20345 19.0888 8.44886 19.3063 8.69254C19.5016 8.91328 19.6994 9.12969 19.8916 9.35476C20.1003 9.60234 20.3008 9.85597 20.503 10.1092C20.7327 10.3966 20.972 10.6779 21.1856 10.9748C21.6276 11.592 22.0704 12.2092 22.4853 12.845C23.2448 14.0085 23.8883 15.2424 24.4069 16.5292C25.0236 18.0597 25.4275 19.6412 25.5424 21.2877C25.5945 22.0619 25.5874 22.8388 25.521 23.6119C25.469 24.2753 25.3741 24.9347 25.2371 25.586C24.8759 27.3185 24.1807 28.9657 23.1897 30.4371C22.8362 30.9633 22.4415 31.4612 22.0093 31.926C21.9119 32.0308 21.8158 32.1368 21.7171 32.2394C21.5603 32.403 21.4057 32.5696 21.2424 32.7281C21.1004 32.8631 20.9528 32.9877 20.8056 33.1176C20.6886 33.2189 20.568 33.3171 20.451 33.4162L20.0317 33.7677L19.5352 34.1088C19.0271 34.4615 18.4935 34.7764 17.9385 35.051C17.8673 35.0856 17.4865 35.2756 17.4153 35.3094Z" fill="#00BCD4"/>
  <path d="M56.7333 28.6416C57.6102 28.6416 58.2965 28.146 58.6396 27.3834L64.7398 13.5816C64.8161 13.391 64.8924 13.1241 64.8924 12.781C64.8924 11.6372 63.9773 10.7222 62.8335 10.7222C61.6897 10.7222 61.1178 11.5228 60.9272 12.0185L56.7333 22.6176L52.5394 12.0185C52.3487 11.5228 51.7768 10.7222 50.633 10.7222C49.4893 10.7222 48.5742 11.6372 48.5742 12.781C48.5742 13.1241 48.6505 13.391 48.7267 13.5816L54.827 27.3834C55.1701 28.146 55.8564 28.6416 56.7333 28.6416Z" fill="white"/>
  <path d="M71.6443 12.781C71.6443 11.6372 70.7292 10.7222 69.5854 10.7222C68.4417 10.7222 67.5266 11.6372 67.5266 12.781V26.5828C67.5266 27.7266 68.4417 28.6416 69.5854 28.6416C70.7292 28.6416 71.6443 27.7266 71.6443 26.5828V12.781ZM69.5854 8.66333C71.1868 8.66333 72.0637 7.74829 72.0637 6.26136C72.0637 4.50754 71.1868 3.74501 69.5854 3.74501C68.0223 3.74501 67.1454 4.50754 67.1454 6.26136C67.1454 7.74829 68.0223 8.66333 69.5854 8.66333Z" fill="white"/>
  <path d="M86.6598 21.2069C86.6598 23.8377 85.0966 25.3246 82.8853 25.3246C80.2546 25.3246 78.8058 23.4183 78.8058 19.6819C78.8058 15.9074 80.2927 14.001 82.8853 14.001C85.1729 14.001 86.6598 15.9455 86.6598 15.9455V21.2069ZM82.4659 10.4934C77.662 10.4934 74.7262 13.4673 74.7262 19.6819C74.7262 25.8965 77.7382 28.8322 82.8853 28.8322C87.4986 28.8322 90.7775 26.2778 90.7775 21.2069V3.24936C90.7775 2.10557 89.8624 1.19054 88.7186 1.19054C87.5749 1.19054 86.6598 2.10557 86.6598 3.24936V12.0185C85.8973 11.2559 84.296 10.4934 82.4659 10.4934Z" fill="white"/>
  <path d="M94.025 32.1874C92.9194 32.1874 92.0425 32.988 92.0425 34.0937C92.0425 35.1994 92.9194 36 94.025 36C97.8377 36 100.24 33.3312 101.917 29.5948L109.009 13.5816C109.085 13.391 109.161 13.1241 109.161 12.781C109.161 11.6372 108.246 10.7222 107.102 10.7222C105.959 10.7222 105.387 11.5228 105.196 12.0185L101.002 22.6176L96.8083 12.0185C96.6176 11.5228 96.0457 10.7222 94.902 10.7222C93.7582 10.7222 92.8431 11.6372 92.8431 12.781C92.8431 13.1241 92.9194 13.391 92.9956 13.5816L98.8671 27.1165C97.6089 30.2429 96.4651 32.1874 94.025 32.1874Z" fill="white"/>
  <path d="M118.43 14.1535C120.641 14.1535 121.899 15.2973 121.899 17.013V17.6993H116.904C113.587 17.6993 110.728 19.5294 110.728 23.0751C110.728 26.5065 113.206 28.8322 116.943 28.8322C119.23 28.8322 120.908 28.2603 121.937 26.6209C121.937 27.7266 122.852 28.6416 123.958 28.6416C125.064 28.6416 125.979 27.7266 125.979 26.6209V16.8605C125.979 12.8191 123.157 10.4934 118.43 10.4934C115.151 10.4934 113.244 11.7516 112.177 12.9335C111.834 13.3148 111.681 13.7723 111.681 14.1917C111.681 15.183 112.482 15.9836 113.473 15.9836C113.931 15.9836 114.236 15.8692 114.617 15.6023C115.57 14.9161 116.752 14.1535 118.43 14.1535ZM118.01 25.4008C115.875 25.4008 114.846 24.5239 114.846 23.0751C114.846 21.7026 115.761 20.9019 117.438 20.9019H121.899V21.9695C121.899 24.1045 120.031 25.4008 118.01 25.4008Z" fill="white"/>
  <path d="M131.912 1.19054C130.768 1.19054 129.853 2.10557 129.853 3.24936V23.7614C129.853 26.964 131.721 28.6416 134.695 28.6416C135.763 28.6416 136.602 27.8028 136.602 26.7353C136.602 25.6677 135.763 24.829 134.695 24.829C134.428 24.829 133.971 24.6002 133.971 24.1427V3.24936C133.971 2.10557 133.056 1.19054 131.912 1.19054Z" fill="white"/>
  <path d="M145.832 14.1535C148.044 14.1535 149.302 15.2973 149.302 17.013V17.6993H144.307C140.99 17.6993 138.131 19.5294 138.131 23.0751C138.131 26.5065 140.609 28.8322 144.345 28.8322C146.633 28.8322 148.31 28.2603 149.34 26.6209C149.34 27.7266 150.255 28.6416 151.361 28.6416C152.466 28.6416 153.381 27.7266 153.381 26.6209V16.8605C153.381 12.8191 150.56 10.4934 145.832 10.4934C142.553 10.4934 140.647 11.7516 139.58 12.9335C139.236 13.3148 139.084 13.7723 139.084 14.1917C139.084 15.183 139.885 15.9836 140.876 15.9836C141.333 15.9836 141.638 15.8692 142.02 15.6023C142.973 14.9161 144.155 14.1535 145.832 14.1535ZM145.413 25.4008C143.278 25.4008 142.248 24.5239 142.248 23.0751C142.248 21.7026 143.163 20.9019 144.841 20.9019H149.302V21.9695C149.302 24.1045 147.434 25.4008 145.413 25.4008Z" fill="white"/>
  <path d="M161.374 12.781C161.374 11.6372 160.459 10.7222 159.315 10.7222C158.171 10.7222 157.256 11.6372 157.256 12.781V26.5828C157.256 27.7266 158.171 28.6416 159.315 28.6416C160.459 28.6416 161.374 27.7266 161.374 26.5828V12.781ZM159.315 8.66333C160.916 8.66333 161.793 7.74829 161.793 6.26136C161.793 4.50754 160.916 3.74501 159.315 3.74501C157.752 3.74501 156.875 4.50754 156.875 6.26136C156.875 7.74829 157.752 8.66333 159.315 8.66333Z" fill="white"/>
</svg>
