<svg width="50" height="50" viewBox="0 0 50 50" fill="none"
  xmlns="http://www.w3.org/2000/svg">
  <path d="M24.4273 49.9163C23.0764 49.1369 22.0336 48.2192 21.5845 47.8462C17.835 44.6767 15.1494 40.3281 14.409 35.3968C14.0143 32.8912 14.0103 30.3938 14.5 27.9006C15.0285 25.2062 16.0423 22.695 17.357 20.2979C18.1363 18.8633 19.0204 17.4881 20.0022 16.1833C20.8016 15.1283 21.6159 14.0819 22.4702 13.0705C24.1677 11.0633 26.0236 9.2112 27.9566 7.43179C29.8412 5.69803 31.8142 4.06623 33.7966 2.44405C34.6365 1.7568 35.5221 1.11924 36.5181 0.659888C37.1488 0.365371 37.7867 0.00211844 38.5194 0.357666C38.6607 0.428506 38.7942 0.513848 38.9179 0.612311C39.1372 0.807532 39.3432 1.01713 39.5346 1.2397C40.2427 2.06338 40.5631 2.85921 40.8211 3.48687C41.2185 4.45232 41.5831 5.43143 41.9504 6.4085C42.8926 8.91674 43.7582 11.4472 44.4756 14.0308C44.6216 14.5606 44.7642 15.0912 44.9086 15.6201L45.1254 16.557C45.1824 16.7957 45.2485 17.0332 45.2996 17.2735C45.394 17.7233 45.4817 18.1749 45.5738 18.6262C45.6551 19.0337 45.7426 19.4378 45.8171 19.8485C45.8958 20.2985 45.9601 20.75 46.0269 21.2023C46.103 21.7157 46.195 22.2285 46.2446 22.7423C46.3454 23.8089 46.4473 24.8762 46.502 25.9466C46.6024 27.9055 46.5119 29.8694 46.2318 31.8104C45.8985 34.1188 45.2703 36.3405 44.2444 38.4388C43.7596 39.4241 43.2008 40.3713 42.5727 41.2721C42.0397 42.0485 41.4574 42.7899 40.8295 43.492C39.1633 45.3615 37.1512 46.8919 34.9035 47.9994C34.1008 48.396 33.268 48.729 32.4129 48.9953C32.2202 49.0552 32.0282 49.1177 31.8355 49.1741C31.5289 49.2646 31.2228 49.3602 30.9118 49.4397C30.6435 49.5055 30.3756 49.5547 30.1046 49.6105C29.8905 49.6524 29.6742 49.6882 29.4616 49.7275L28.7026 49.8638L27.8569 49.9332C26.989 50.0088 26.1166 50.02 25.2469 49.967C25.1357 49.9594 24.5378 49.9249 24.4273 49.9163Z" fill="white"/>
  <path d="M24.47 49.9639C22.9101 49.9639 21.5478 49.6901 20.9723 49.5915C16.1392 48.72 11.6376 46.2959 8.52888 42.3952C6.93342 40.4224 5.68037 38.2617 4.85687 35.8578C3.96648 33.2604 3.58786 30.579 3.52711 27.8462C3.48417 26.2144 3.56169 24.5817 3.75907 22.9613C3.92352 21.6482 4.10516 20.335 4.33895 19.0324C4.80471 16.4459 5.48523 13.9147 6.26885 11.4079C7.03344 8.96478 7.92567 6.56578 8.83079 4.17046C9.21432 3.15562 9.66227 2.16098 10.2949 1.26557C10.6938 0.695374 11.0644 0.0620924 11.8769 0.00390895C12.0347 -0.00534362 12.1931 0.0018405 12.3494 0.025345C12.637 0.0848368 12.9203 0.163406 13.1974 0.260529C14.2228 0.620041 14.8985 1.1492 15.436 1.56384C16.2632 2.20141 17.0689 2.86715 17.8758 3.52983C19.9469 5.23123 21.9627 6.99021 23.8766 8.86923C24.2681 9.25508 24.6572 9.64338 25.0468 10.0292L25.7034 10.7323C25.8722 10.9106 26.0483 11.0833 26.2127 11.2658C26.5195 11.6081 26.8215 11.9554 27.1271 12.3002C27.4014 12.6126 27.6793 12.9188 27.9493 13.2373C28.2426 13.5876 28.5243 13.9465 28.8084 14.3048C29.1312 14.7115 29.4675 15.1096 29.7675 15.5297C30.3885 16.4031 31.0108 17.2764 31.5937 18.1761C32.6609 19.8225 33.5651 21.5684 34.2937 23.3894C35.1602 25.555 35.7278 27.7929 35.8892 30.1227C35.9624 31.2182 35.9524 32.3177 35.8591 33.4116C35.786 34.3503 35.6528 35.2834 35.4603 36.2051C34.9527 38.6566 33.976 40.9873 32.5835 43.0695C32.0868 43.814 31.5322 44.5185 30.9249 45.1763C30.788 45.3245 30.653 45.4746 30.5143 45.6197C30.294 45.8513 30.0768 46.0871 29.8473 46.3112C29.6479 46.5023 29.4405 46.6787 29.2337 46.8624C29.0692 47.0057 28.8999 47.1448 28.7354 47.285L28.1463 47.7823L27.4486 48.265C26.7348 48.764 25.9849 49.2097 25.2051 49.5983C25.1051 49.6473 24.57 49.9161 24.47 49.9639Z" fill="#00BCD4"/>
</svg>
